<?xml version="1.0" encoding="UTF-8"?>
<svg width="18px" height="18px" viewBox="0 0 18 18" version="1.1" xmlns="http://www.w3.org/2000/svg" xmlns:xlink="http://www.w3.org/1999/xlink">
    <!-- Generator: sketchtool 61.2 (101010) - https://sketch.com -->
    <title>88B74EDD-6F27-49E1-86CD-5E29AF15148D</title>
    <desc>Created with sketchtool.</desc>
    <g id="ds" stroke="none" stroke-width="1" fill="none" fill-rule="evenodd">
        <g id="Residente---Soporte" transform="translate(-31.000000, -111.000000)" fill="#ffffff">
            <g id="atoms-/-navigation-/-search-bar-/-desktop-/-inicial-XL" transform="translate(16.000000, 100.000000)">
                <g id="icon_search" transform="translate(15.000000, 11.000000)">
                    <path d="M12.8571429,11.3142857 L12.0342857,11.3142857 L11.7257546,11.0057143 C12.7543261,9.87428571 13.3714689,8.33142857 13.3714689,6.68571429 C13.3714286,2.98285714 10.3885714,0 6.68571429,0 C2.98285714,0 0,2.98285714 0,6.68571429 C0,10.3885714 2.98285714,13.3714286 6.68571429,13.3714286 C8.33142857,13.3714286 9.87428571,12.7542857 11.0057143,11.7257143 L11.3142857,12.0342454 L11.3142857,12.8571025 L16.4571429,18 L18,16.4571429 L12.8571429,11.3142857 Z M6.68571429,11.3142857 C4.11428571,11.3142857 2.05714286,9.25714286 2.05714286,6.68571429 C2.05714286,4.11428571 4.11428571,2.05714286 6.68571429,2.05714286 C9.25714286,2.05714286 11.3142857,4.11428571 11.3142857,6.68571429 C11.3142857,9.25714286 9.25714286,11.3142857 6.68571429,11.3142857 Z" id="searching-magnifying-glass-copy"></path>
                </g>
            </g>
        </g>
    </g>
</svg>