<?xml version="1.0" encoding="UTF-8"?>
<svg width="178px" height="52px" viewBox="0 0 178 52" version="1.1" xmlns="http://www.w3.org/2000/svg" xmlns:xlink="http://www.w3.org/1999/xlink">
    <!-- Generator: Sketch 59 (86127) - https://sketch.com -->
    <title>Atoms / Brand / logo-header-invert-mob</title>
    <desc>Created with Sketch.</desc>
    <defs>
        <polygon id="path-1" points="0.46992 0.40782446 4.67062313 0.40782446 4.67062313 16.645055 0.46992 16.645055"></polygon>
    </defs>
    <g id="Page-1" stroke="none" stroke-width="1" fill="none" fill-rule="evenodd">
        <g id="mp-contenido-base-introducción" transform="translate(-49.000000, -15.000000)">
            <g id="Atoms-/-Brand-/-soluciones-/-logo-header-desk-white" transform="translate(49.000000, 13.000000)">
                <g id="Group-62" transform="translate(0.000000, 2.444444)">
                    <path d="M153.358977,15.9595822 C152.429038,15.326337 151.335406,14.8517411 150.14966,14.5668934 C151.108935,15.9063986 152.314042,17.1332267 153.728606,18.2086168 C153.881151,17.0232539 153.693403,16.1984576 153.358977,15.9595822" id="Fill-1" fill="#FFFFFF"></path>
                    <path d="M141.320869,14.7029492 C143.708321,13.6124396 146.308566,13.0538859 148.938776,13.0669339 C148.133309,11.5157304 147.488834,9.88824636 147.013985,8.20907231 C147.013985,8.20907231 144.474682,7.34589856 144.281695,6.7035367 C144.537149,4.95862093 145.532556,3.40340265 147.019063,2.42781557 L131.986395,2.42781557 L131.986395,24.2781557 C132.235246,21.2018446 134.459675,17.7039835 141.320869,14.7029492" id="Fill-3" fill="#FFFFFF"></path>
                    <path d="M131.986395,25.4920635 L131.986395,32.7755102 C132.757804,32.181875 133.566895,31.6480601 134.408163,31.1772617 C133.718044,30.3233404 132.185386,28.1542888 131.986395,25.4920635" id="Fill-5" fill="#FFFFFF"></path>
                    <path d="M161.947781,9.57878906 C162.533346,14.0195095 165.407492,18.2701222 165.407492,18.2701222 C165.407492,18.2701222 162.913963,15.7353531 161.991698,13.2932006 C161.069434,10.8510481 161.947781,9.57878906 161.947781,9.57878906 L161.947781,9.57878906 Z M154.730698,43.7006803 L153.364381,43.7006803 C162.635819,38.2801741 158.688138,31.728771 158.688138,31.728771 C158.688138,31.728771 166.237041,37.8073422 154.730698,43.6665584 L154.730698,43.7006803 Z M151.866311,27.1271903 C154.437916,24.7727798 157.721957,25.2163643 158.624702,26.6738566 C159.893425,28.6236789 159.220026,30.8854728 157.458453,32.4940763 C157.458453,32.4940763 159.898305,29.7545759 158.151371,27.4537855 C157.224227,26.1961501 154.589186,26.1376554 152.583628,27.8486245 C150.578069,29.5595936 148.679864,33.6980916 153.418057,34.7412466 C149.319105,35.0288453 148.430999,30.1299167 151.866311,27.1271903 L151.866311,27.1271903 Z M141.867796,43.6226874 L140.120862,43.6226874 C140.120862,43.6226874 144.112461,36.6764452 150.299926,35.3700643 C146.600622,37.0381373 143.612779,39.9623834 141.867796,43.6226874 L141.867796,43.6226874 Z M141.409104,22.1112722 C141.409104,22.1112722 142.111782,27.2977997 138.452003,31.2071935 C139.713407,28.2722234 140.705939,25.2295256 141.418864,22.1161468 L141.409104,22.1112722 Z M138.286093,27.3416707 C138.286093,27.3416707 133.128245,21.828548 146.196094,18.4017352 C135.421707,22.9984414 138.295853,27.3465453 138.295853,27.3465453 L138.286093,27.3416707 Z M158.292882,7.35599157 L156.057978,6.61993363 C162.430872,5.64502246 162.582143,7.64359037 162.582143,7.64359037 C162.582143,7.64359037 161.269502,7.06351822 158.292882,7.35599157 L158.292882,7.35599157 Z M153.330223,3.9827989 C158.927244,1.98910554 162.62606,4.86021896 162.62606,4.86021896 C162.62606,4.86021896 158.873567,3.84143678 155.896947,4.61649116 L153.330223,3.9827989 Z M173.156463,28.3068328 L173.156463,18.0361435 C171.536401,16.9832395 168.91112,16.6712679 165.26598,17.2318418 C168.520743,15.8962135 171.170423,15.506249 173.156463,15.8718407 L173.156463,2.42781557 L149.187353,2.42781557 C147.4331,3.08441825 146.030185,4.43808242 145.312868,6.16659994 C145.234793,6.41032773 147.664886,7.33649335 147.664886,7.33649335 C148.150416,9.25658091 148.823815,11.1245107 149.675324,12.9129853 C151.514485,13.1508636 153.176024,14.1277246 154.276885,15.6183638 C154.584307,16.0619484 154.789254,17.4511968 154.476953,19.3376499 C154.79755,19.5857648 155.133274,19.8134066 155.482172,20.0200878 C157.922025,19.0451766 159.629921,16.1594395 159.629921,16.1594395 C159.629921,16.1594395 159.293222,19.3279008 155.579766,20.7512712 C155.15572,20.5280165 154.743385,20.2823389 154.345201,20.0152132 C153.662043,23.1105562 151.622326,27.2636778 146.659666,30.8123545 C142.955971,29.5985901 142.624151,27.4927819 142.624151,27.4927819 C143.701101,28.7138582 145.134759,29.566418 146.723103,29.9300599 C151.114837,26.3033903 152.891049,22.1307705 153.388779,19.2986535 C151.65014,17.8738208 150.183789,16.1462782 149.060481,14.199868 C146.498148,13.909832 143.904585,14.2929721 141.535977,15.3112668 C129.336715,20.3515576 133.586938,28.8137866 134.860541,30.8708492 C136.112673,30.2283827 137.397987,29.6526977 138.710628,29.1452564 C135.431466,30.9000965 133.313674,32.640313 131.986395,34.2732892 L131.986395,43.7006803 L160.659539,43.7006803 C166.75429,37.8512132 170.911798,32.5769437 173.156463,28.3068328 L173.156463,28.3068328 Z" id="Fill-7" fill="#FFFFFF"></path>
                    <path d="M173.156463,31.5616024 C170.668344,35.3396853 167.070525,39.4766093 162.258503,43.7006803 L173.156463,43.7006803 L173.156463,31.5616024 Z" id="Fill-9" fill="#FFFFFF"></path>
                    <path d="M152.571429,50.984127 C156.385216,48.7904439 160.02651,46.3568622 163.469388,43.7006803 L161.594899,43.7006803 C158.942697,46.0222789 155.936535,48.4667857 152.571429,50.984127" id="Fill-11" fill="#FFFFFF"></path>
                    <g id="Group-15" transform="translate(173.156463, 15.780801)">
                        <mask id="mask-2" fill="white">
                            <use xlink:href="#path-1"></use>
                        </mask>
                        <g id="Clip-14"></g>
                        <path d="M0.46992,12.7945395 L0.46992,16.645055 C6.2821649,8.03116535 5.85593361,1.39837321 0.46992,0.40782446 L0.46992,2.56372469 C3.07089959,4.25348432 3.06121252,7.86121826 0.46992,12.7945395" id="Fill-13" fill="#FFFFFF" mask="url(#mask-2)"></path>
                    </g>
                    <path d="M131.61044,43.7006803 C131.61044,43.7006803 127.754491,39.5971034 131.986395,34.4121132 L131.986395,32.7755102 C124.03832,38.5591398 131.61044,43.7006803 131.61044,43.7006803" id="Fill-16" fill="#FFFFFF"></path>
                    <path d="M131.999302,24.2781557 L131.999302,23.0642479 C131.964882,23.4682286 131.964882,23.8741751 131.999302,24.2781557" id="Fill-18" fill="#FFFFFF"></path>
                    <path d="M135.815733,31.8078196 C135.815733,31.8078196 135.692805,31.6403919 135.505954,31.3153853 L135.422363,31.3597044 C135.663302,31.6551649 135.815733,31.8078196 135.815733,31.8078196" id="Fill-20" fill="#FFFFFF"></path>
                    <path d="M150.595185,1.93180231 C154.055633,1.12219845 157.631364,1.23517925 161.047619,2.26247782 C161.047619,2.26247782 157.738002,-1.54580175 149.879463,0.719325459 C148.672821,1.03346719 147.531027,1.6138027 146.517007,2.42781557 L149.25981,2.42781557 C149.691645,2.2172855 150.138372,2.05139662 150.595185,1.93180231" id="Fill-22" fill="#FFFFFF"></path>
                    <path d="M148.938776,12.1390779 C149.194523,12.7934756 149.460708,13.4478733 149.794745,14.102271 C150.326073,14.2010851 150.850094,14.3568318 151.360544,14.5668934 C151.026507,13.827424 150.723786,13.0814106 150.452381,12.3550291 C149.952369,12.2392007 149.446616,12.167217 148.938776,12.1390779" id="Fill-24" fill="#FFFFFF"></path>
                    <path d="M153.905002,18.2086168 C153.87833,18.4154885 153.835656,18.6301668 153.782313,18.8604579 C154.118373,19.05562 154.465102,19.250782 154.849171,19.4225246 C154.902514,19.2390723 154.955857,19.05562 154.993197,18.8799741 C154.613396,18.6719314 154.249597,18.4474951 153.905002,18.2086168" id="Fill-26" fill="#FFFFFF"></path>
                    <path d="M2.62283403,19.4132324 L2.78796015,19.4132324 L3.18960513,21.059303 C3.54414061,21.2759465 4.09974141,21.3525323 4.39454009,21.3525323 C5.33964425,21.3525323 6.20218536,20.8930173 6.20218536,19.7069862 C6.20218536,17.8946299 2.50481743,18.0478015 2.50481743,15.6495112 C2.50481743,14.1057299 3.82776899,13.3529856 5.10361104,13.3529856 C5.59947505,13.3529856 6.35565551,13.5187467 6.85200518,13.7616182 L6.78109808,15.5094536 L6.65093985,15.5094536 L6.19004373,14.0926159 C5.78888441,13.9268548 5.39889538,13.8507935 4.9972504,13.8507935 C4.2527259,13.8507935 3.5679382,14.475545 3.5679382,15.3305785 C3.5679382,17.3333502 7.26530612,16.8234775 7.26530612,19.4646393 C7.26530612,20.5746092 6.4974697,21.8503401 4.17064851,21.8503401 C3.60339174,21.8503401 3.09538611,21.7737543 2.42176871,21.4931145 L2.62283403,19.4132324 Z" id="Fill-28" fill="#FFFFFF"></path>
                    <path d="M15.7741847,17.9332055 C15.7741847,15.8023095 15.2427854,13.7731845 13.3370613,13.7731845 C11.7314662,13.7731845 10.8652711,15.25411 10.8652711,17.065529 C10.8652711,19.6937391 11.7081967,21.4290921 13.3949976,21.4290921 C15.1506572,21.4290921 15.7741847,19.6685586 15.7741847,17.9332055 M9.68707483,17.6782534 C9.68707483,15.1386996 11.1307333,13.3529856 13.4643312,13.3529856 C15.5894534,13.3529856 16.952381,14.9981087 16.952381,17.3204811 C16.952381,19.8469202 15.5775812,21.8503401 13.279125,21.8503401 C10.8766684,21.8503401 9.68707483,19.7451491 9.68707483,17.6782534" id="Fill-30" fill="#FFFFFF"></path>
                    <path d="M20.6808558,15.0545555 C20.6808558,13.9882757 20.6448734,13.9089811 20.3811662,13.8296864 L19.3741497,13.5115749 L19.3741497,13.3529856 C19.9493764,13.3982302 20.5369259,13.4439413 21.1481352,13.4439413 C21.7598373,13.4439413 22.3473868,13.3982302 23.0783734,13.3529856 L23.0783734,13.5115749 L21.987562,13.8296864 C21.7238548,13.9089811 21.6878723,13.9882757 21.6878723,15.1455111 L21.6878723,19.4222913 L21.6878723,20.1256815 L24.0139178,20.1256815 C24.6132972,20.1256815 24.697092,20.0351923 24.9129869,19.5813471 L25.2846415,18.8098568 L25.4285714,18.8098568 L25.3324538,20.6364324 C24.1696776,20.5911878 22.5627888,20.5454767 21.8436321,20.5454767 C21.0283579,20.5454767 20.2012538,20.5911878 19.3741497,20.6364324 L19.3741497,20.4778431 L20.2973713,20.1825871 C20.6330435,20.0804369 20.6808558,20.0351923 20.6808558,19.1615519 L20.6808558,15.0545555 Z" id="Fill-32" fill="#FFFFFF"></path>
                    <path d="M35.1156463,13.5091216 L34.5688942,13.6986826 C34.2454418,13.8213936 34.0717074,13.9212108 34.0594438,14.1551858 C34.0344057,14.7783562 34.0594438,15.6922784 34.0344057,17.6744271 C34.0093675,19.83469 32.8289961,20.6364324 30.9771928,20.6364324 C29.1749548,20.6364324 27.9194689,19.934965 27.9194689,18.2312054 L27.9194689,15.1020751 C27.9194689,14.1666328 27.8821671,13.9431889 27.5346985,13.8213936 L26.6394558,13.5091216 L26.6394558,13.3529856 C27.2485478,13.3978576 27.8326017,13.4422716 28.4166556,13.4422716 C29.075313,13.4422716 29.7217069,13.3978576 30.3803643,13.3529856 L30.3803643,13.5091216 L29.808574,13.6986826 C29.1253894,13.9326577 29.0257477,13.9766139 29.0012205,14.3667249 C28.9634077,15.0237782 28.9634077,15.9811986 28.9634077,17.6968631 C28.9634077,19.1222337 29.3241619,20.057676 31.3001342,20.057676 C32.6051855,20.057676 33.3880118,19.3337728 33.3880118,17.9972303 C33.3880118,16.6277207 33.3757482,14.8566531 33.2761065,14.0883358 C33.2515793,13.8877858 33.0650704,13.7989577 32.7293544,13.6986826 L32.0461698,13.5091216 L32.0461698,13.3529856 C32.5806583,13.3978576 33.1146358,13.4422716 33.6613879,13.4422716 C34.1340474,13.4422716 34.6184595,13.3978576 35.1156463,13.3529856 L35.1156463,13.5091216 Z" id="Fill-34" fill="#FFFFFF"></path>
                    <path d="M43.3587345,15.649653 L42.8690281,14.2075473 C42.3903532,13.9525952 42.0056866,13.8502996 41.5155005,13.8502996 C39.9408616,13.8502996 38.7273873,14.9986333 38.7273873,17.5764824 C38.7273873,20.4596446 40.2555016,21.3530261 41.5155005,21.3530261 C42.0522111,21.3530261 42.4253665,21.2633208 42.9155526,21.0209589 L43.4287611,19.5027873 L43.5918367,19.5027873 C43.5918367,19.8474447 43.5688143,20.1915776 43.5688143,20.5236449 C43.5688143,20.8677778 43.5918367,21.2124353 43.5918367,21.5570927 C42.9505659,21.7228641 42.3088154,21.8503401 41.6555537,21.8503401 C39.4972001,21.8503401 37.537415,20.3578736 37.537415,17.8445494 C37.537415,15.3947009 39.3921602,13.3529856 41.7020782,13.3529856 C42.2973042,13.3529856 42.9270638,13.4038711 43.5222898,13.5570522 C43.5222898,13.9017097 43.4987877,14.2589574 43.4987877,14.6030903 C43.4987877,14.9477478 43.5222898,15.2918807 43.5222898,15.649653 L43.3587345,15.649653 Z" id="Fill-36" fill="#FFFFFF"></path>
                    <path d="M46.0136054,20.4778431 L46.9398182,20.1825871 C47.2404789,20.0804369 47.2765779,20.0351923 47.2884461,19.1615519 C47.3008088,18.4810172 47.3245452,17.7888216 47.3245452,17.1078205 C47.3245452,16.4272858 47.3008088,15.7355566 47.2884461,15.0545555 C47.2647097,13.9882757 47.2523471,13.9089811 47.0238845,13.8296864 L46.0136054,13.5115749 L46.0136054,13.3529856 C46.5906958,13.3982302 47.1801489,13.4439413 47.8541628,13.4439413 C48.4549896,13.4439413 49.0444427,13.3982302 49.6462585,13.3529856 L49.6462585,13.5115749 L48.6354849,13.8296864 C48.4070224,13.9089811 48.3951542,13.9882757 48.3709233,15.0545555 C48.3590551,15.7355566 48.3348243,16.4272858 48.3348243,17.1078205 C48.3348243,17.7888216 48.3590551,18.4810172 48.3709233,19.1615519 C48.383286,20.0351923 48.4193851,20.0804369 48.7200457,20.1825871 L49.6462585,20.4778431 L49.6462585,20.6364324 C49.0805418,20.5911878 48.383286,20.5459432 47.8541628,20.5459432 C47.2523471,20.5459432 46.5550913,20.5911878 46.0136054,20.6364324 L46.0136054,20.4778431 Z" id="Fill-38" fill="#FFFFFF"></path>
                    <path d="M58.1551371,17.9332055 C58.1551371,15.8023095 57.6237378,13.7731845 55.7180137,13.7731845 C54.1124185,13.7731845 53.2462235,15.25411 53.2462235,17.065529 C53.2462235,19.6937391 54.089149,21.4290921 55.77595,21.4290921 C57.5316096,21.4290921 58.1551371,19.6685586 58.1551371,17.9332055 M52.0680272,17.6782534 C52.0680272,15.1386996 53.5116857,13.3529856 55.8448087,13.3529856 C57.9704058,13.3529856 59.3333333,14.9981087 59.3333333,17.3204811 C59.3333333,19.8469202 57.9585336,21.8503401 55.6605523,21.8503401 C53.2576208,21.8503401 52.0680272,19.7451491 52.0680272,17.6782534" id="Fill-40" fill="#FFFFFF"></path>
                    <path d="M69.0204082,13.5962175 L68.1971828,13.90249 C67.9269831,14.004931 67.8042569,14.1325884 67.7916307,14.3626867 C67.7552674,15.3976041 67.6567834,17.6591875 67.6567834,18.4004405 C67.6567834,18.9247286 67.6567834,20.3935757 67.6815307,21.8503401 L67.3865837,21.8503401 C66.6002267,20.6362823 65.7527592,19.4737076 64.9174128,18.2979994 L62.4234946,14.8102754 L62.3992524,14.8102754 L62.3992524,16.2407728 C62.3992524,17.9276356 62.4234946,20.4445336 62.460868,20.6877655 C62.4972314,20.8921222 62.5835943,20.994038 62.9396518,21.1096125 L63.750251,21.3780606 L63.750251,21.5561504 C63.2098516,21.5057179 62.657331,21.4542347 62.1169316,21.4542347 C61.5886532,21.4542347 61.072496,21.5057179 60.5442177,21.5561504 L60.5442177,21.3780606 L61.4780481,21.0066461 C61.6497638,20.9430801 61.760369,20.8285562 61.7724901,20.7129817 C61.8219846,20.3042682 61.9078424,18.4004405 61.9078424,16.7645356 L61.9078424,14.2350294 L61.7482478,13.9791894 C61.367443,13.8005743 60.9866382,13.6597835 60.5932072,13.5321262 L60.5932072,13.3529856 C60.9866382,13.4044688 61.3795641,13.4554267 61.7724901,13.4554267 C62.1411738,13.4554267 62.5098575,13.4044688 62.8780362,13.3529856 C63.1118726,13.8005743 63.3699512,14.2092878 63.6643931,14.6180014 L67.1406262,19.4737076 L67.1653734,19.4484913 L67.1653734,16.355822 C67.1653734,15.7427517 67.1532523,15.1165479 67.116384,14.4903441 C67.0916367,14.1325884 66.9936577,14.0301473 66.6370951,13.8772737 L65.826496,13.5321262 L65.826496,13.3529856 C66.330027,13.4044688 66.8461842,13.4554267 67.3497153,13.4554267 C67.9027409,13.4554267 68.4552615,13.4044688 69.0204082,13.3529856 L69.0204082,13.5962175 Z" id="Fill-42" fill="#FFFFFF"></path>
                    <path d="M72.7015156,15.0545555 C72.7015156,13.9882757 72.6668375,13.9089811 72.4126895,13.8296864 L71.4421769,13.5115749 L71.4421769,13.3529856 C72.4012885,13.3982302 73.2791678,13.4439413 74.157047,13.4439413 C75.2548712,13.4439413 76.3412943,13.3982302 77.3578861,13.3529856 C77.34601,13.6365806 77.323208,14.0451813 77.323208,14.2149651 C77.323208,14.3852154 77.34601,14.771427 77.3578861,15.0321664 L77.1958965,15.0321664 L76.8956694,14.1813815 C76.7802339,13.86327 76.6876006,13.86327 75.3589056,13.86327 C74.6890951,13.86327 74.157047,13.874931 73.7299835,13.8861255 C73.7067064,14.2835317 73.6720282,14.7028604 73.6720282,15.1795612 L73.6720282,16.575147 L74.8738868,16.575147 C76.271938,16.575147 76.3987745,16.5522915 76.5028089,16.3027466 L76.803036,15.4972062 L76.9650256,15.4972062 C76.9536246,15.928196 76.9417485,16.3596521 76.9417485,16.7789809 C76.9417485,17.2440207 76.9536246,17.6754769 76.9650256,18.1521776 L76.803036,18.1521776 L76.5028089,17.2897317 C76.3987745,17.0401868 76.271938,17.0173313 74.8738868,17.0173313 L73.6720282,17.0173313 L73.6720282,18.5603119 C73.6720282,19.0822572 73.7067064,19.6042026 73.7299835,20.0804369 C74.2729575,20.0920979 74.8159316,20.1256815 75.3356285,20.1256815 C76.5721652,20.1256815 76.7455558,20.1149534 76.8609912,19.9787532 C76.9997038,19.8080365 77.1265402,19.4451469 77.334609,18.7762732 L77.4965986,18.7762732 C77.4733215,19.1051128 77.4272424,19.4451469 77.4272424,19.7739864 L77.4272424,20.6364324 C76.8263131,20.5911878 75.0468024,20.5454767 74.399794,20.5454767 C73.3832022,20.5454767 72.273977,20.5911878 71.4421769,20.6364324 L71.4421769,20.4778431 L72.3319322,20.1825871 C72.6554364,20.0804369 72.7015156,20.0351923 72.7015156,19.1615519 L72.7015156,15.0545555 Z" id="Fill-44" fill="#FFFFFF"></path>
                    <path d="M80.1194327,19.4132324 L80.2845588,19.4132324 L80.6862038,21.059303 C81.0407392,21.2759465 81.5963401,21.3525323 81.8911387,21.3525323 C82.8362429,21.3525323 83.698784,20.8930173 83.698784,19.7069862 C83.698784,17.8946299 80.0014161,18.0478015 80.0014161,15.6495112 C80.0014161,14.1057299 81.3243676,13.3529856 82.6002097,13.3529856 C83.0960737,13.3529856 83.8522541,13.5187467 84.3486038,13.7616182 L84.2776967,15.5094536 L84.1475385,15.5094536 L83.6866424,14.0926159 C83.285483,13.9268548 82.895494,13.8507935 82.493849,13.8507935 C81.7493245,13.8507935 81.0645368,14.475545 81.0645368,15.3305785 C81.0645368,17.3333502 84.7619048,16.8234775 84.7619048,19.4646393 C84.7619048,20.5746092 83.9940683,21.8503401 81.6672471,21.8503401 C81.0999904,21.8503401 80.5919848,21.7737543 79.9183673,21.4931145 L80.1194327,19.4132324 Z" id="Fill-46" fill="#FFFFFF"></path>
                    <path d="M4.55796694,41.7682648 C4.55796694,42.5303799 4.58135112,43.2676488 4.62909383,44.0297639 C5.26631281,44.0546099 5.83337924,44.103288 6.42382985,44.103288 C8.71450541,44.103288 11.0524365,43.5627593 11.0524365,40.6618543 C11.0524365,37.9825357 8.8796562,37.0977115 6.23480771,37.0977115 L4.55796694,37.0977115 L4.55796694,41.7682648 Z M4.55796694,36.2864114 L6.37657432,36.2864114 C7.93503266,36.2864114 10.3440906,36.0161471 10.3440906,33.2141193 C10.3440906,30.8050651 8.69063406,29.945087 6.68349171,29.945087 C5.92789031,29.945087 5.4314636,29.945087 4.62909383,29.993765 C4.58135112,31.1250215 4.55796694,31.8374445 4.55796694,32.943855 L4.55796694,36.2864114 Z M2.57420878,32.8206388 C2.57420878,30.5104617 2.50308189,30.3380604 1.98375816,30.1661662 L0,29.4780823 L0,29.1337868 C1.29879648,29.2316499 2.50308189,29.3305271 3.44819261,29.3305271 C4.39281615,29.3305271 6.18755217,29.1337868 7.53360419,29.1337868 C10.0605574,29.1337868 12.611382,30.2888754 12.611382,33.2389654 C12.611382,35.2788781 10.4853701,36.4831517 8.26582141,36.704738 L8.26582141,36.753416 C10.6037525,36.9258173 13.3197279,37.8354876 13.3197279,40.7358854 C13.3197279,42.9973845 11.6195029,44.9145881 8.21856587,44.9145881 C6.42382985,44.9145881 4.58135112,44.7178478 3.11740385,44.7178478 C2.00762952,44.7178478 1.0625188,44.816725 0,44.9145881 L0,44.5702926 L1.8181202,43.9319008 C2.47969771,43.7103145 2.57420878,43.6119443 2.57420878,41.7190798 L2.57420878,32.8206388 Z" id="Fill-48" fill="#FFFFFF"></path>
                    <path d="M31.5487555,37.6400522 C31.5487555,33.6828768 30.4860746,29.9153486 26.6742431,29.9153486 C23.4633266,29.9153486 21.7306326,32.664256 21.7306326,36.0290282 C21.7306326,40.9100008 23.4171024,44.1325376 26.790042,44.1325376 C30.3011777,44.1325376 31.5487555,40.862589 31.5487555,37.6400522 M19.3741497,37.1659341 C19.3741497,32.4511472 22.261973,29.1337868 26.9282381,29.1337868 C31.1789616,29.1337868 33.9047619,32.1906267 33.9047619,36.5026575 C33.9047619,41.1939829 31.1560878,44.9145881 26.5589208,44.9145881 C21.7535064,44.9145881 19.3741497,41.0048244 19.3741497,37.1659341" id="Fill-50" fill="#FFFFFF"></path>
                    <path d="M40.1509981,32.8206388 C40.1509981,30.5099547 40.0787833,30.3380604 39.5515161,30.1661662 L37.537415,29.4775753 L37.537415,29.1337868 C38.6884006,29.2316499 39.8631281,29.3300201 41.0863285,29.3300201 C42.3090343,29.3300201 43.4837618,29.2316499 44.946854,29.1337868 L44.946854,29.4775753 L42.7645813,30.1661662 C42.2373141,30.3380604 42.1650993,30.5099547 42.1650993,33.017379 L42.1650993,42.2844545 L42.1650993,43.8081775 L46.8170201,43.8081775 C48.0159841,43.8081775 48.183661,43.6114373 48.6154661,42.62875 L49.3583884,40.9569647 L49.6462585,40.9569647 L49.4543451,44.9145881 C47.128632,44.8162179 43.9155669,44.7178478 42.4772058,44.7178478 C40.8464368,44.7178478 39.1919259,44.8162179 37.537415,44.9145881 L37.537415,44.5702926 L39.3838393,43.9313937 C40.0550414,43.7103145 40.1509981,43.6114373 40.1509981,41.7190798 L40.1509981,32.8206388 Z" id="Fill-52" fill="#FFFFFF"></path>
                    <path d="M58.7159808,23.5495459 C58.9804896,23.282607 59.2693153,23.0642479 59.7020575,23.0642479 C60.1352961,23.0642479 60.4722594,23.3797667 60.4722594,23.7684058 C60.4722594,24.1810843 60.3278465,24.4234829 59.8707873,24.7149622 L56.2138173,27.2155739 L55.0833278,27.2155739 L58.7159808,23.5495459 Z M53.2789116,43.3611219 L55.1314654,42.7300843 C55.7329374,42.5112245 55.8048957,42.4140647 55.8292127,40.5449914 C55.8530333,39.087595 55.901171,37.6066599 55.901171,36.1502652 C55.901171,34.6933696 55.8530333,33.2124345 55.8292127,31.7560398 C55.7805788,29.4737871 55.7567581,29.3035071 55.2996989,29.1337279 L53.2789116,28.4541104 L53.2789116,28.1140513 C54.4337181,28.211211 55.6128415,28.3083708 56.9597022,28.3083708 C58.1626464,28.3083708 59.3412736,28.211211 60.5442177,28.1140513 L60.5442177,28.4541104 L58.5234304,29.1337279 C58.0663711,29.3035071 58.0425505,29.4737871 57.9939166,31.7560398 C57.9700959,33.2124345 57.9219583,34.6933696 57.9219583,36.1502652 C57.9219583,37.6066599 57.9700959,39.087595 57.9939166,40.5449914 C58.0182335,42.4140647 58.0901918,42.5112245 58.6921601,42.7300843 L60.5442177,43.3611219 L60.5442177,43.7006803 C59.4137281,43.6040213 58.0182335,43.5068616 56.9597022,43.5068616 C55.7567581,43.5068616 54.3617598,43.6040213 53.2789116,43.7006803 L53.2789116,43.3611219 Z" id="Fill-54" fill="#FFFFFF"></path>
                    <path d="M62.9659864,29.1337868 C64.0921465,29.2298534 65.2430519,29.3269155 66.368707,29.3269155 C67.3968963,29.3269155 68.4498307,29.2298534 69.47802,29.1337868 L69.47802,29.471762 L68.6210273,29.7126751 C67.4948671,30.026758 67.2746852,30.1472145 67.2746852,30.4125176 C67.2746852,30.9192314 70.4082383,38.4233747 71.5591437,40.9813339 C73.0524421,37.4587269 74.4230245,33.9839044 75.2800172,31.3054887 C75.4269735,30.8709492 75.5249444,30.6056462 75.5249444,30.3403432 C75.5249444,30.0750402 74.7659225,29.8092394 73.6887478,29.471762 L73.6887478,29.1337868 C74.6189662,29.2298534 75.5491846,29.3269155 76.479908,29.3269155 C77.2384248,29.3269155 77.9732064,29.2298534 78.707483,29.1337868 L78.707483,29.471762 C77.6545485,29.737065 77.3121554,30.002368 76.9202719,30.8231648 C75.377988,34.1282531 73.4443256,38.8823041 71.1920054,44.9145881 L70.6284203,44.9145881 C69.037151,40.5229022 66.5404085,34.4423361 64.9981247,30.9436214 C64.6062411,30.0506502 64.4350446,29.9779781 63.6512776,29.7126751 L62.9659864,29.471762 L62.9659864,29.1337868 Z" id="Fill-56" fill="#FFFFFF"></path>
                    <path d="M85.4189358,31.3764012 L82.6496694,37.6939342 L88.0679937,37.6939342 L85.4189358,31.3764012 Z M77.4965986,43.3672727 C78.0742949,43.1523772 78.7488535,42.8902736 79.3265497,42.5804701 C81.4217544,37.6939342 84.0221328,32.2104119 85.7562151,27.9198791 L86.2857286,27.9198791 C88.212542,32.8782106 90.3792756,37.837034 92.4262975,42.6763616 L94.4489796,43.3672727 L94.4489796,43.7006803 C93.1728818,43.6057722 91.9206269,43.5103724 90.6445291,43.5103724 C89.5606656,43.5103724 88.5011418,43.6057722 87.4172782,43.7006803 L87.4172782,43.3672727 C88.0193142,43.224173 89.054995,42.9143694 89.7772396,42.62817 C89.4886398,41.6269637 88.7182125,39.3860516 88.3809332,38.6710447 C87.3695922,38.6469489 86.3339114,38.6233448 85.3225703,38.6233448 C84.3112293,38.6233448 83.324228,38.6469489 82.3128869,38.6710447 C81.6626681,39.8871465 81.2772061,41.2930643 80.9399268,42.62817 L83.0107917,43.3672727 L83.0107917,43.7006803 C82.0719731,43.6057722 81.1326578,43.5103724 80.1694995,43.5103724 C79.278367,43.5103724 78.3877312,43.6057722 77.4965986,43.7006803 L77.4965986,43.3672727 Z" id="Fill-58" fill="#FFFFFF"></path>
                    <path d="M101.329243,36.3112575 L102.899914,36.3112575 C105.048626,36.3112575 107.035315,35.9421159 107.035315,33.2384583 C107.035315,31.0753294 105.62619,30.1413202 103.454604,30.1413202 C102.715493,30.1413202 102.02213,30.1661662 101.329243,30.1661662 L101.329243,36.3112575 Z M96.8707483,44.5702926 L98.64919,43.9313937 C99.2963293,43.7103145 99.3887778,43.6114373 99.3887778,41.7190798 L99.3887778,32.8206388 C99.3887778,30.5104617 99.3192032,30.3380604 98.8112131,30.1661662 L96.8707483,29.4775753 L96.8707483,29.1337868 C97.7256584,29.2316499 98.8112131,29.3300201 100.058314,29.3300201 C101.259668,29.3300201 102.57682,29.1337868 104.217066,29.1337868 C107.265959,29.1337868 109.252648,30.4607696 109.252648,32.9190089 C109.252648,35.4015872 107.589529,36.5815218 105.464167,36.9506634 L108.65221,42.0141902 C109.992236,44.152473 110.107558,44.3248743 111.401361,44.5702926 L111.401361,44.9145881 C110.87002,44.865403 110.315329,44.8162179 109.784465,44.8162179 C109.229775,44.8162179 108.65221,44.865403 108.074645,44.9145881 C106.596423,42.2596085 104.540159,39.1132852 103.108161,37.1225576 L101.329243,37.1225576 L101.329243,39.9494314 C101.329243,43.1449397 101.398817,43.7103145 101.999256,43.9065477 L103.847272,44.5702926 L103.847272,44.9145881 C102.853689,44.8162179 101.306369,44.7178478 100.497683,44.7178478 C99.3192032,44.7178478 97.9796534,44.8162179 96.8707483,44.9145881 L96.8707483,44.5702926 Z" id="Fill-60" fill="#FFFFFF"></path>
                </g>
            </g>
        </g>
    </g>
</svg>