<?xml version="1.0" encoding="UTF-8"?>
<svg width="200px" height="57px" viewBox="0 0 200 57" version="1.1" xmlns="http://www.w3.org/2000/svg" xmlns:xlink="http://www.w3.org/1999/xlink">
    <!-- Generator: Sketch 59 (86127) - https://sketch.com -->
    <title>Atoms / Brand / logo-header-invert-mob</title>
    <desc>Created with Sketch.</desc>
    <defs>
        <polygon id="path-1" points="0.40359116 0.453509853 20.1052486 0.453509853 20.1052486 22.8299312 0.40359116 22.8299312"></polygon>
    </defs>
    <g id="Page-1" stroke="none" stroke-width="1" fill="none" fill-rule="evenodd">
        <g id="mp-login-admin" transform="translate(-620.000000, -302.000000)">
            <g id="Atoms-/-Brand-/-soluciones-/-logo-header-desk-color" transform="translate(620.000000, 299.000000)">
                <g id="Group-62" transform="translate(0.000000, 2.755556)">
                    <polygon id="Fill-1" fill="#FFD050" points="148.93617 48.2222222 195.744681 48.2222222 195.744681 2.75555556 148.93617 2.75555556"></polygon>
                    <g id="Group-61">
                        <path d="M172.563978,4.50323027 C178.900994,2.32361182 183.08884,5.46247556 183.08884,5.46247556 C183.08884,5.46247556 178.839669,4.3486852 175.470055,5.19601853 L172.563978,4.50323027 Z" id="Fill-2" fill="#006B38"></path>
                        <path d="M175.65232,7.38613539 C182.86779,6.3203073 183.039061,8.50525488 183.039061,8.50525488 C183.039061,8.50525488 181.552873,7.87108717 178.182707,8.1908356 L175.65232,7.38613539 Z" id="Fill-4" fill="#006B38"></path>
                        <path d="M170.906519,29.8059892 C173.818122,27.2320143 177.536354,27.7169661 178.558453,29.3103791 C179.994365,31.4420353 179.231934,33.9147565 177.238011,35.6733728 C177.238011,35.6733728 180.000442,32.6783959 178.022541,30.1630416 C176.972265,28.7881234 173.989392,28.7241737 171.718674,30.594702 C169.447403,32.4652303 167.298785,36.9896705 172.663425,38.1301066 C168.021989,38.4605133 167.017017,33.1047271 170.906519,29.8059892" id="Fill-6" fill="#006B38"></path>
                        <path d="M186.105304,18.9876742 C206.745635,10.8127727 206.033481,34.8685127 170.86221,56.4888356 C199.735138,33.6321522 205.116354,16.1579006 186.105304,18.9876742" id="Fill-8" fill="#006B38"></path>
                        <path d="M155.983481,32.0281875 C135.508343,39.7660994 147.939282,47.8877095 147.939282,47.8877095 C147.939282,47.8877095 140.370221,40.091177 155.983481,32.0281875" id="Fill-10" fill="#006B38"></path>
                        <path d="M174.149171,47.8876029 C187.176796,41.4926343 178.629834,34.7939048 178.629834,34.7939048 C178.629834,34.7939048 183.08895,41.9615987 172.60221,47.8876029 L174.149171,47.8876029 Z" id="Fill-12" fill="#006B38"></path>
                        <path d="M155.718564,34.2662666 C157.152265,31.058124 158.282099,27.7316745 159.093702,24.3274196 C159.093702,24.3274196 159.86221,29.9922959 155.718564,34.2662666" id="Fill-14" fill="#006B38"></path>
                        <path d="M151.972541,34.4263007 C151.972541,34.4263007 140.420055,23.5761707 158.525028,15.8435879 C163.768122,13.5946906 170.502928,13.003156 173.607901,17.2238353 C174.536077,18.5134873 174.646575,27.1626822 164.983591,33.8347661 C160.790221,32.5078101 160.41453,30.2056214 160.41453,30.2056214 C161.633867,31.5405711 163.257624,32.4726378 165.055414,32.8701917 C173.044365,26.5178562 173.397956,18.6147409 172.381381,17.7141162 C169.237735,14.9909254 164.160939,14.9909254 159.182486,16.9040868 C143.353757,23.2137891 152.000166,34.4263007 152.000166,34.4263007 L151.972541,34.4263007 Z" id="Fill-16" fill="#006B38"></path>
                        <path d="M159.585967,47.8396939 L157.608066,47.8396939 C157.608066,47.8396939 162.127403,40.2456688 169.132928,38.8174591 C164.943978,40.641091 161.561657,43.8375094 159.585967,47.8396939" id="Fill-18" fill="#006B38"></path>
                        <path d="M182.320442,10.6210835 C182.320442,10.6210835 181.259669,11.9533686 182.370718,14.6818886 C183.481215,17.4104085 186.238122,20.122941 186.238122,20.122941 C186.238122,20.122941 182.983425,15.4759305 182.320442,10.6210835" id="Fill-20" fill="#006B38"></path>
                        <g id="Group-24" transform="translate(161.325967, 0.000000)">
                            <mask id="mask-2" fill="white">
                                <use xlink:href="#path-1"></use>
                            </mask>
                            <g id="Clip-23"></g>
                            <path d="M0.40359116,7.34344897 C0.40359116,7.34344897 0.690883978,2.70709677 7.25994475,1.15098776 C16.2986188,-1.03928897 20.1052486,2.62715966 20.1052486,2.62715966 C16.1759669,1.6343408 12.0632597,1.5245605 8.08314917,2.30741124 C6.08314917,2.72841333 3.21574586,4.12464813 2.16049724,6.89580117 C2.07209945,7.1622582 4.82348066,8.17479488 4.82348066,8.17479488 C4.82348066,8.17479488 7.19917127,18.348124 13.6632597,22.0305601 C16.4256906,20.964732 18.3593923,17.8098808 18.3593923,17.8098808 C18.3593923,17.8098808 17.9781768,21.2738221 13.7737569,22.8299312 C5.94502762,18.8757089 3.39254144,8.94219111 3.39254144,8.94219111 C3.39254144,8.94219111 0.630110497,8.02557895 0.420165746,7.34344897 L0.40359116,7.34344897 Z" id="Fill-22" fill="#006B38" mask="url(#mask-2)"></path>
                        </g>
                        <path d="M164.486575,20.2666146 C149.695967,23.9970129 155.541823,30.0455873 155.541823,30.0455873 C155.541823,30.0455873 152.28768,25.291994 164.486575,20.2666146" id="Fill-25" fill="#006B38"></path>
                        <path d="M3.76220994,21.1518381 L3.95005525,21.1518381 L4.40696133,22.8241224 C4.81027624,23.0442159 5.44232044,23.1220213 5.77767956,23.1220213 C6.85281768,23.1220213 7.83403315,22.6551886 7.83403315,21.45027 C7.83403315,19.6090519 3.6279558,19.7646629 3.6279558,17.3281798 C3.6279558,15.7598138 5.13292818,14.9950821 6.58430939,14.9950821 C7.14839779,14.9950821 8.00861878,15.163483 8.57325967,15.4102222 L8.49259669,17.1858918 L8.34453039,17.1858918 L7.82022099,15.7464909 C7.3638674,15.5780901 6.92022099,15.5008176 6.46331492,15.5008176 C5.61635359,15.5008176 4.83734807,16.1355182 4.83734807,17.0041681 C4.83734807,19.0388339 9.04342541,18.5208415 9.04342541,21.2040637 C9.04342541,22.3317098 8.16994475,23.6277568 5.52298343,23.6277568 C4.87767956,23.6277568 4.29977901,23.5499513 3.53348066,23.2648423 L3.76220994,21.1518381 Z" id="Fill-27" fill="#006B38"></path>
                        <path d="M19.1916022,19.6483277 C19.1916022,17.4836309 18.5733702,15.4223193 16.3562431,15.4223193 C14.4882873,15.4223193 13.4805525,16.9267357 13.4805525,18.7668879 C13.4805525,21.4367873 14.4612155,23.1996669 16.4236464,23.1996669 C18.4661878,23.1996669 19.1916022,21.4112074 19.1916022,19.6483277 M12.1098343,19.3893315 C12.1098343,16.8094946 13.7893923,14.9954552 16.5043094,14.9954552 C18.9766851,14.9954552 20.5623204,16.6666736 20.5623204,19.0258841 C20.5623204,21.5923982 18.9628729,23.6275969 16.2888398,23.6275969 C13.4938122,23.6275969 12.1098343,21.4890128 12.1098343,19.3893315" id="Fill-29" fill="#006B38"></path>
                        <path d="M24.3819337,17.0946036 C24.3819337,15.8763621 24.3416022,15.7857667 24.0460221,15.6951713 L22.9172928,15.3317239 L22.9172928,15.1505332 C23.5620442,15.2022258 24.2206077,15.2544514 24.9056906,15.2544514 C25.591326,15.2544514 26.2498895,15.2022258 27.0692265,15.1505332 L27.0692265,15.3317239 L25.8465746,15.6951713 C25.5509945,15.7857667 25.510663,15.8763621 25.510663,17.1985218 L25.510663,22.0848107 L25.510663,22.8884451 L28.1178453,22.8884451 C28.7896685,22.8884451 28.8835912,22.7850598 29.1255801,22.2665344 L29.5421547,21.3850946 L29.7034807,21.3850946 L29.5957459,23.471986 C28.2924309,23.4202933 26.491326,23.3680678 25.6852486,23.3680678 C24.7714365,23.3680678 23.8443646,23.4202933 22.9172928,23.471986 L22.9172928,23.2907952 L23.9520994,22.9534606 C24.3283425,22.8367525 24.3819337,22.7850598 24.3819337,21.7869118 L24.3819337,17.0946036 Z" id="Fill-31" fill="#006B38"></path>
                        <path d="M40.7653039,15.3319371 L40.1741436,15.5525635 C39.8244199,15.6953845 39.6365746,15.8115597 39.6233149,16.0838788 C39.5962431,16.8091748 39.6233149,17.8728713 39.5962431,20.1798562 C39.5691713,22.6941447 38.2929282,23.6272771 36.2907182,23.6272771 C34.3420994,23.6272771 32.9846409,22.8108528 32.9846409,20.8278797 L32.9846409,17.1859451 C32.9846409,16.0972017 32.9443094,15.8371396 32.5686188,15.6953845 L31.600663,15.3319371 L31.600663,15.1502134 C32.2592265,15.202439 32.8907182,15.2541317 33.5222099,15.2541317 C34.2343646,15.2541317 34.9332597,15.202439 35.6454144,15.1502134 L35.6454144,15.3319371 L35.0271823,15.5525635 C34.2885083,15.8248826 34.1807735,15.8760423 34.1542541,16.3300851 C34.1133702,17.0948168 34.1133702,18.20914 34.1133702,20.205969 C34.1133702,21.8649304 34.5034254,22.9536738 36.6398895,22.9536738 C38.0509392,22.9536738 38.8973481,22.1111367 38.8973481,20.5555606 C38.8973481,18.9616147 38.8840884,16.9003031 38.7763536,16.0060734 C38.7498343,15.772657 38.5481768,15.6692717 38.1851934,15.5525635 L37.4465193,15.3319371 L37.4465193,15.1502134 C38.0244199,15.202439 38.601768,15.2541317 39.1929282,15.2541317 C39.7039779,15.2541317 40.2277348,15.202439 40.7653039,15.1502134 L40.7653039,15.3319371 Z" id="Fill-33" fill="#006B38"></path>
                        <path d="M49.8254696,17.3282864 L49.2613812,15.8633057 C48.71,15.6043095 48.2669061,15.5003912 47.7022652,15.5003912 C45.888453,15.5003912 44.490663,16.6669401 44.490663,19.2856797 C44.490663,22.2145753 46.250884,23.1221279 47.7022652,23.1221279 C48.3204972,23.1221279 48.7503315,23.0309996 49.3149724,22.7847933 L49.9061326,21.2425401 L50.0939779,21.2425401 C50.0939779,21.5926646 50.0674586,21.9422562 50.0674586,22.2795908 C50.0674586,22.6291824 50.0939779,22.979307 50.0939779,23.3294315 C49.3553039,23.4978323 48.6160773,23.6273304 47.8635912,23.6273304 C45.3774033,23.6273304 43.1199448,22.11119 43.1199448,19.5579988 C43.1199448,17.0692902 45.2564088,14.9951887 47.9171823,14.9951887 C48.6028177,14.9951887 49.328232,15.0468814 50.0138674,15.2024923 C50.0138674,15.5526168 49.9867956,15.9155313 49.9867956,16.2651229 C49.9867956,16.6152474 50.0138674,16.964839 50.0138674,17.3282864 L49.8254696,17.3282864 Z" id="Fill-35" fill="#006B38"></path>
                        <path d="M52.6234807,23.2907952 L53.6582873,22.9534606 C53.9941989,22.8367525 54.0345304,22.7850598 54.0477901,21.7869118 C54.0616022,21.0093902 54.0881215,20.2185457 54.0881215,19.4404912 C54.0881215,18.6629696 54.0616022,17.8726581 54.0477901,17.0946036 C54.0212707,15.8763621 54.0074586,15.7857667 53.7522099,15.6951713 L52.6234807,15.3317239 L52.6234807,15.1505332 C53.268232,15.2022258 53.9267956,15.2544514 54.6798343,15.2544514 C55.351105,15.2544514 56.0096685,15.2022258 56.6820442,15.1505332 L56.6820442,15.3317239 L55.5527624,15.6951713 C55.2975138,15.7857667 55.2842541,15.8763621 55.2571823,17.0946036 C55.2439227,17.8726581 55.2168508,18.6629696 55.2168508,19.4404912 C55.2168508,20.2185457 55.2439227,21.0093902 55.2571823,21.7869118 C55.2709945,22.7850598 55.311326,22.8367525 55.6472376,22.9534606 L56.6820442,23.2907952 L56.6820442,23.471986 C56.05,23.4202933 55.2709945,23.3686007 54.6798343,23.3686007 C54.0074586,23.3686007 53.228453,23.4202933 52.6234807,23.471986 L52.6234807,23.2907952 Z" id="Fill-37" fill="#006B38"></path>
                        <path d="M66.0496133,19.6483277 C66.0496133,17.4836309 65.4313812,15.4223193 63.2142541,15.4223193 C61.3462983,15.4223193 60.3385635,16.9267357 60.3385635,18.7668879 C60.3385635,21.4367873 61.3192265,23.1996669 63.2816575,23.1996669 C65.3241989,23.1996669 66.0496133,21.4112074 66.0496133,19.6483277 M58.9678453,19.3893315 C58.9678453,16.8094946 60.6474033,14.9954552 63.361768,14.9954552 C65.8346961,14.9954552 67.4203315,16.6666736 67.4203315,19.0258841 C67.4203315,21.5923982 65.820884,23.6275969 63.1474033,23.6275969 C60.3518232,23.6275969 58.9678453,21.4890128 58.9678453,19.3893315" id="Fill-39" fill="#006B38"></path>
                        <path d="M78.9936464,15.3970059 L78.0930939,15.7076948 C77.7975138,15.811613 77.6632597,15.9411112 77.6494475,16.1745275 C77.6096685,17.2243682 77.5019337,19.5185631 77.5019337,20.2705049 C77.5019337,20.8023531 77.5019337,22.2923808 77.5290055,23.7701514 L77.2063536,23.7701514 C76.3461326,22.538587 75.4190608,21.3592483 74.5052486,20.1665866 L71.7770718,16.6285703 L71.7505525,16.6285703 L71.7505525,18.0796952 C71.7505525,19.7908822 71.7770718,22.3440734 71.8179558,22.5908126 C71.8577348,22.7981162 71.9522099,22.9015015 72.3417127,23.0187426 L73.228453,23.2910617 L73.228453,23.4717195 C72.6372928,23.4205598 72.0328729,23.3683342 71.4417127,23.3683342 C70.8638122,23.3683342 70.2991713,23.4205598 69.7212707,23.4717195 L69.7212707,23.2910617 L70.7428177,22.9142914 C70.930663,22.8498088 71.0516575,22.7336336 71.0649171,22.6163925 C71.1190608,22.2017854 71.2129834,20.2705049 71.2129834,18.6110105 L71.2129834,16.0450294 L71.0383978,15.7855003 C70.6218232,15.6043095 70.2052486,15.4614885 69.7748619,15.3319904 L69.7748619,15.1502667 C70.2052486,15.2024923 70.6350829,15.2541849 71.0649171,15.2541849 C71.468232,15.2541849 71.871547,15.2024923 72.2743094,15.1502667 C72.5301105,15.6043095 72.8124309,16.0189166 73.1345304,16.4335237 L76.9372928,21.3592483 L76.9643646,21.3336684 L76.9643646,18.1964034 C76.9643646,17.5744927 76.951105,16.9392592 76.9107735,16.3040256 C76.8837017,15.9411112 76.7765193,15.8371929 76.3864641,15.6821149 L75.4997238,15.3319904 L75.4997238,15.1502667 C76.0505525,15.2024923 76.6151934,15.2541849 77.1660221,15.2541849 C77.7709945,15.2541849 78.3754144,15.2024923 78.9936464,15.1502667 L78.9936464,15.3970059 Z" id="Fill-41" fill="#006B38"></path>
                        <path d="M82.1548066,17.0946036 C82.1548066,15.8763621 82.1144751,15.7857667 81.818895,15.6951713 L80.6901657,15.3317239 L80.6901657,15.1505332 C81.8056354,15.2022258 82.8266298,15.2544514 83.8476243,15.2544514 C85.1244199,15.2544514 86.3879558,15.2022258 87.5702762,15.1505332 C87.5564641,15.4745449 87.5299448,15.9413776 87.5299448,16.1353583 C87.5299448,16.3298719 87.5564641,16.7711248 87.5702762,17.0690237 L87.3818785,17.0690237 L87.0327072,16.0969885 C86.898453,15.7335411 86.7907182,15.7335411 85.2454144,15.7335411 C84.4664088,15.7335411 83.8476243,15.746864 83.3509392,15.7596539 C83.3238674,16.2136967 83.2835359,16.6927864 83.2835359,17.2374246 L83.2835359,18.8319034 L84.681326,18.8319034 C86.3072928,18.8319034 86.4548066,18.8057906 86.5758011,18.5206816 L86.9249724,17.600339 L87.1133702,17.600339 C87.1001105,18.0927516 87.0862983,18.5856971 87.0862983,19.0647868 C87.0862983,19.5961021 87.1001105,20.0890476 87.1133702,20.6336858 L86.9249724,20.6336858 L86.5758011,19.6483277 C86.4548066,19.3632187 86.3072928,19.3371059 84.681326,19.3371059 L83.2835359,19.3371059 L83.2835359,21.0999856 C83.2835359,21.6963164 83.3238674,22.2926472 83.3509392,22.8367525 C83.9824309,22.8500753 84.6139227,22.8884451 85.2183425,22.8884451 C86.6564641,22.8884451 86.8581215,22.8761881 86.9923757,22.7205772 C87.1537017,22.5255306 87.3012155,22.1109235 87.5432044,21.3467248 L87.7316022,21.3467248 C87.7045304,21.7224292 87.6509392,22.1109235 87.6509392,22.4866279 L87.6509392,23.471986 C86.9520442,23.4202933 84.8824309,23.3680678 84.1299448,23.3680678 C82.9476243,23.3680678 81.6575691,23.4202933 80.6901657,23.471986 L80.6901657,23.2907952 L81.7249724,22.9534606 C82.1012155,22.8367525 82.1548066,22.7850598 82.1548066,21.7869118 L82.1548066,17.0946036 Z" id="Fill-43" fill="#006B38"></path>
                        <path d="M91.0533702,21.1518381 L91.2412155,21.1518381 L91.6981215,22.8241224 C92.1014365,23.0442159 92.7334807,23.1220213 93.0688398,23.1220213 C94.1439779,23.1220213 95.1251934,22.6551886 95.1251934,21.45027 C95.1251934,19.6090519 90.919116,19.7646629 90.919116,17.3281798 C90.919116,15.7598138 92.4240884,14.9950821 93.8754696,14.9950821 C94.439558,14.9950821 95.299779,15.163483 95.8644199,15.4102222 L95.7837569,17.1858918 L95.6356906,17.1858918 L95.1113812,15.7464909 C94.6550276,15.5780901 94.2113812,15.5008176 93.7544751,15.5008176 C92.9075138,15.5008176 92.1285083,16.1355182 92.1285083,17.0041681 C92.1285083,19.0388339 96.3345856,18.5208415 96.3345856,21.2040637 C96.3345856,22.3317098 95.461105,23.6277568 92.8141436,23.6277568 C92.1688398,23.6277568 91.5909392,23.5499513 90.8246409,23.2648423 L91.0533702,21.1518381 Z" id="Fill-45" fill="#006B38"></path>
                        <path d="M5.16906077,44.909999 C5.16906077,45.7109688 5.19558011,46.4858258 5.24972376,47.2867956 C5.97237569,47.3129084 6.61546961,47.3640681 7.28508287,47.3640681 C9.88287293,47.3640681 12.5342541,46.7959818 12.5342541,43.7471805 C12.5342541,40.9312627 10.0701657,40.0013277 7.07071823,40.0013277 L5.16906077,40.0013277 L5.16906077,44.909999 Z M5.16906077,39.1486652 L7.23149171,39.1486652 C8.99889503,39.1486652 11.7309392,38.864622 11.7309392,35.919739 C11.7309392,33.3878644 9.8558011,32.4840421 7.57955801,32.4840421 C6.72265193,32.4840421 6.15966851,32.4840421 5.24972376,32.5352019 C5.19558011,33.7241331 5.16906077,34.4728774 5.16906077,35.6356958 L5.16906077,39.1486652 Z M2.91933702,35.5061977 C2.91933702,33.0782413 2.83867403,32.8970505 2.24972376,32.7163927 L0,31.9932283 L0,31.6313797 C1.47292818,31.7342321 2.83867403,31.8381503 3.91049724,31.8381503 C4.98176796,31.8381503 7.01712707,31.6313797 8.54364641,31.6313797 C11.4093923,31.6313797 14.3022099,32.8453579 14.3022099,35.9458518 C14.3022099,38.089765 11.8911602,39.3554358 9.37403315,39.5883193 L9.37403315,39.639479 C12.0254144,39.8206698 15.1055249,40.7767176 15.1055249,43.824986 C15.1055249,46.2017826 13.1773481,48.2167306 9.32044199,48.2167306 C7.28508287,48.2167306 5.19558011,48.00996 3.53535912,48.00996 C2.27679558,48.00996 1.20497238,48.1138782 0,48.2167306 L0,47.854882 L2.06187845,47.1839432 C2.8121547,46.9510597 2.91933702,46.8476744 2.91933702,44.8583063 L2.91933702,35.5061977 Z" id="Fill-47" fill="#006B38"></path>
                        <path d="M35.3278453,40.5956867 C35.3278453,36.2812146 34.0958011,32.1735131 29.6764641,32.1735131 C25.9538122,32.1735131 23.9449724,35.1706217 23.9449724,38.839202 C23.9449724,44.1608817 25.900221,47.674384 29.8107182,47.674384 C33.8814365,47.674384 35.3278453,44.109189 35.3278453,40.5956867 M21.2129282,40.0787601 C21.2129282,34.9382712 24.5609945,31.3213836 29.9709392,31.3213836 C34.899116,31.3213836 38.059337,34.654228 38.059337,39.3555957 C38.059337,44.4705047 34.8725967,48.5270465 29.5427624,48.5270465 C23.9714917,48.5270465 21.2129282,44.264267 21.2129282,40.0787601" id="Fill-49" fill="#006B38"></path>
                        <path d="M45.3988398,35.5064642 C45.3988398,33.0779748 45.3181768,32.897317 44.7292265,32.7166591 L42.4795028,31.9929618 L42.4795028,31.6316461 C43.7651381,31.7344985 45.0772928,31.8378839 46.4435912,31.8378839 C47.809337,31.8378839 49.1214917,31.7344985 50.7557459,31.6316461 L50.7557459,31.9929618 L48.3181768,32.7166591 C47.7292265,32.897317 47.6485635,33.0779748 47.6485635,35.7132348 L47.6485635,45.4527719 L47.6485635,47.0541786 L52.8446961,47.0541786 C54.1839227,47.0541786 54.3712155,46.847408 54.8535359,45.8146205 L55.6833702,44.0576029 L56.0049171,44.0576029 L55.7905525,48.2169971 C53.1927624,48.1136117 49.6038122,48.0102264 47.9971823,48.0102264 C46.1756354,48.0102264 44.3275691,48.1136117 42.4795028,48.2169971 L42.4795028,47.8551484 L44.5419337,47.1836767 C45.2916575,46.9513262 45.3988398,46.847408 45.3988398,44.8585727 L45.3988398,35.5064642 Z" id="Fill-51" fill="#006B38"></path>
                        <path d="M65.4337569,26.7742412 C65.728232,26.490198 66.049779,26.2578475 66.531547,26.2578475 C67.0138674,26.2578475 67.3890055,26.5935833 67.3890055,27.0071246 C67.3890055,27.4462458 67.228232,27.7041762 66.7193923,28.0143322 L62.6481215,30.675172 L61.389558,30.675172 L65.4337569,26.7742412 Z M59.3807182,47.855255 L61.4431492,47.1837833 C62.1127624,46.9508999 62.1928729,46.8475145 62.2199448,44.8586793 C62.2464641,43.3078995 62.3000552,41.7320726 62.3000552,40.1823586 C62.3000552,38.6321116 62.2464641,37.0562848 62.2199448,35.5065707 C62.1658011,33.0780814 62.1392818,32.8968906 61.630442,32.7162328 L59.3807182,31.9930684 L59.3807182,31.6312198 C60.6663536,31.7346051 61.9790608,31.8379904 63.4785083,31.8379904 C64.8177348,31.8379904 66.1298895,31.7346051 67.469116,31.6312198 L67.469116,31.9930684 L65.2193923,32.7162328 C64.7105525,32.8968906 64.6840331,33.0780814 64.6298895,35.5065707 C64.6033702,37.0562848 64.549779,38.6321116 64.549779,40.1823586 C64.549779,41.7320726 64.6033702,43.3078995 64.6298895,44.8586793 C64.6569613,46.8475145 64.7370718,46.9508999 65.4072376,47.1837833 L67.469116,47.855255 L67.469116,48.2165707 C66.2105525,48.1137183 64.6569613,48.010333 63.4785083,48.010333 C62.1392818,48.010333 60.5862431,48.1137183 59.3807182,48.2165707 L59.3807182,47.855255 Z" id="Fill-53" fill="#006B38"></path>
                        <path d="M70.3381215,31.6313797 C71.5701657,31.7342321 72.8292818,31.8381503 74.0607735,31.8381503 C75.1856354,31.8381503 76.3375691,31.7342321 77.4624309,31.6313797 L77.4624309,31.9932283 L76.5248619,32.2511587 C75.2928177,32.5874275 75.0519337,32.7163927 75.0519337,33.0004358 C75.0519337,33.5429423 78.4801105,41.5771545 79.7392265,44.3157998 C81.3729282,40.5443671 82.8723757,36.8240941 83.8099448,33.9564836 C83.9707182,33.4912497 84.0779006,33.2072065 84.0779006,32.9231633 C84.0779006,32.6391201 83.2475138,32.354544 82.0690608,31.9932283 L82.0690608,31.6313797 C83.0867403,31.7342321 84.1044199,31.8381503 85.1226519,31.8381503 C85.9524862,31.8381503 86.7563536,31.7342321 87.5596685,31.6313797 L87.5596685,31.9932283 C86.4077348,32.2772715 86.0331492,32.5613147 85.6044199,33.4400899 C83.9171271,36.9786392 81.8016575,42.0685013 79.3375691,48.5268866 L78.7209945,48.5268866 C76.9801105,43.824986 74.2486188,37.314908 72.561326,33.5690551 C72.1325967,32.6130073 71.9453039,32.5352019 71.0878453,32.2511587 L70.3381215,31.9932283 L70.3381215,31.6313797 Z" id="Fill-55" fill="#006B38"></path>
                        <path d="M96.1026519,34.8605723 L93.0225414,41.7069191 L99.0490608,41.7069191 L96.1026519,34.8605723 Z M87.2910497,47.8551484 C87.9335912,47.622265 88.6838674,47.3382218 89.3264088,47.002486 C91.6567956,41.7069191 94.5490608,35.7643945 96.4777901,31.1147195 L97.0667403,31.1147195 C99.2098343,36.4880918 101.619779,41.8619971 103.896575,47.1064042 L106.146298,47.8551484 L106.146298,48.2164642 C104.726961,48.1136117 103.334144,48.0102264 101.914807,48.0102264 C100.709282,48.0102264 99.5308287,48.1136117 98.3253039,48.2164642 L98.3253039,47.8551484 C98.9949171,47.7000704 100.146851,47.3643346 100.950166,47.0541786 C100.629171,45.9691656 99.7722652,43.5406763 99.3971271,42.7658193 C98.2722652,42.7397065 97.1203315,42.7141266 95.9954696,42.7141266 C94.8706077,42.7141266 93.7728177,42.7397065 92.6479558,42.7658193 C91.9247514,44.0837157 91.4960221,45.607317 91.120884,47.0541786 L93.4241989,47.8551484 L93.4241989,48.2164642 C92.38,48.1136117 91.3352486,48.0102264 90.2639779,48.0102264 C89.2728177,48.0102264 88.2822099,48.1136117 87.2910497,48.2164642 L87.2910497,47.8551484 Z" id="Fill-57" fill="#006B38"></path>
                        <path d="M114.235691,39.1748846 L116.056685,39.1748846 C118.547845,39.1748846 120.85116,38.7869231 120.85116,35.9454255 C120.85116,33.6720141 119.217459,32.6903865 116.699779,32.6903865 C115.84232,32.6903865 115.039006,32.7164992 114.235691,32.7164992 L114.235691,39.1748846 Z M109.06663,47.8549886 L111.128508,47.1835169 C111.878232,46.9511663 111.985967,46.8472481 111.985967,44.8584129 L111.985967,35.5063043 C111.985967,33.0783479 111.905304,32.8971571 111.316354,32.7164992 L109.06663,31.992802 L109.06663,31.6314862 C110.05779,31.7343387 111.316354,31.837724 112.76221,31.837724 C114.155028,31.837724 115.681547,31.6314862 117.583757,31.6314862 C121.118564,31.6314862 123.421878,33.0261223 123.421878,35.6096896 C123.421878,38.2188368 121.493702,39.4589278 119.029613,39.8468892 L122.725746,45.1685688 C124.279337,47.4158674 124.413039,47.5970582 125.913039,47.8549886 L125.913039,48.2168372 C125.297017,48.1651445 124.653923,48.1134519 124.037901,48.1134519 C123.395359,48.1134519 122.725746,48.1651445 122.056133,48.2168372 C120.34232,45.4264992 117.958343,42.1197676 116.297569,40.027547 L114.235691,40.027547 L114.235691,42.9985429 C114.235691,46.3569672 114.316354,46.9511663 115.011934,47.1574041 L117.155028,47.8549886 L117.155028,48.2168372 C116.003094,48.1134519 114.208619,48.0100665 113.271602,48.0100665 C111.905304,48.0100665 110.352265,48.1134519 109.06663,48.2168372 L109.06663,47.8549886 Z" id="Fill-59" fill="#006B38"></path>
                    </g>
                </g>
            </g>
        </g>
    </g>
</svg>